<svg width="5" height="5" viewBox="0 0 5 5" fill="none" xmlns="http://www.w3.org/2000/svg">
<path id="*" d="M1.35908 4.95019L0.706721 4.43649C0.637532 4.3846 0.597995 4.31195 0.588111 4.21855C0.578227 4.11478 0.593053 4.03176 0.63259 3.96949C0.63259 3.95911 0.662242 3.92279 0.721548 3.86052L1.78904 2.83313L0.336063 2.66189C0.296526 2.65152 0.266874 2.64633 0.247105 2.64633C0.237221 2.63595 0.227337 2.63076 0.217453 2.63076C0.148263 2.61 0.0889579 2.55812 0.0395369 2.47509C0 2.38169 -0.00988421 2.28829 0.00988421 2.19489L0.276758 1.36986C0.296526 1.28684 0.35089 1.22457 0.439848 1.18306C0.528805 1.14155 0.607879 1.13117 0.677069 1.15193C0.686953 1.15193 0.72649 1.17269 0.795679 1.2142L2.07074 1.97696L1.77422 0.466998C1.76433 0.425487 1.75939 0.399543 1.75939 0.389165C1.75939 0.36841 1.75939 0.352844 1.75939 0.342466C1.75939 0.259444 1.78904 0.18161 1.84835 0.108966C1.91754 0.036322 1.99661 0 2.08557 0H2.90102C2.98997 0 3.06411 0.036322 3.12341 0.108966C3.1926 0.18161 3.2272 0.259444 3.2272 0.342466C3.2272 0.352844 3.2272 0.36841 3.2272 0.389165C3.2272 0.399543 3.22225 0.425487 3.21237 0.466998L2.91584 1.97696L4.20573 1.2142C4.27492 1.17269 4.31446 1.15193 4.32434 1.15193C4.40342 1.13117 4.48249 1.14155 4.56156 1.18306C4.65052 1.22457 4.70489 1.28684 4.72465 1.36986L4.99153 2.19489C5.0113 2.28829 4.99647 2.38169 4.94705 2.47509C4.90751 2.55812 4.84821 2.61 4.76913 2.63076C4.75925 2.63076 4.74442 2.63595 4.72465 2.64633C4.71477 2.64633 4.695 2.65152 4.66535 2.66189L3.19754 2.83313L4.27986 3.86052C4.33917 3.92279 4.36882 3.95911 4.36882 3.96949C4.41824 4.03176 4.43801 4.11478 4.42813 4.21855C4.41824 4.31195 4.37376 4.3846 4.29469 4.43649L3.64233 4.95019C3.56326 4.9917 3.47924 5.00726 3.39029 4.99689C3.30133 4.98651 3.23214 4.945 3.18272 4.87235C3.18272 4.86198 3.17777 4.8516 3.16789 4.84122C3.15801 4.83084 3.14318 4.8049 3.12341 4.76339L2.50071 3.34682L1.878 4.76339C1.86812 4.8049 1.85329 4.83084 1.83352 4.84122C1.82364 4.8516 1.8187 4.86198 1.8187 4.87235C1.77916 4.945 1.70997 4.98651 1.61113 4.99689C1.52217 5.00726 1.43815 4.9917 1.35908 4.95019Z" fill="#ED5151"/>
</svg>
