<svg width="32" height="32" viewBox="0 0 32 32" fill="none" xmlns="http://www.w3.org/2000/svg">
<g id="vuesax/bulk/box">
<g id="box">
<path id="Vector" opacity="0.4" d="M26.8 9.2533C26.8 9.9733 26.4133 10.6266 25.8 10.9599L23.4799 12.2133L21.5066 13.2666L17.4133 15.4799C16.9733 15.7199 16.4933 15.84 16 15.84C15.5066 15.84 15.0266 15.7199 14.5866 15.4799L6.19995 10.9599C5.58662 10.6266 5.19995 9.9733 5.19995 9.2533C5.19995 8.5333 5.58662 7.87993 6.19995 7.54659L8.82662 6.13326L10.92 4.99996L14.5866 3.02666C15.4666 2.54666 16.5333 2.54666 17.4133 3.02666L25.8 7.54659C26.4133 7.87993 26.8 8.5333 26.8 9.2533Z" fill="#A8BCD2"/>
<path id="Vector_2" opacity="0.4" d="M13.2 17.0533L5.40002 13.1467C4.80002 12.84 4.1067 12.88 3.53337 13.2267C2.96003 13.5733 2.62671 14.1867 2.62671 14.8534V22.2267C2.62671 23.5067 3.33335 24.6533 4.48002 25.2267L12.28 29.1201C12.5467 29.2534 12.84 29.32 13.1334 29.32C13.48 29.32 13.8267 29.2267 14.1334 29.0267C14.7067 28.6801 15.04 28.0667 15.04 27.4V20.0267C15.0534 18.7734 14.3467 17.6267 13.2 17.0533Z" fill="#A8BCD2"/>
<path id="Vector_3" opacity="0.4" d="M29.3733 14.8667V22.24C29.3733 23.5067 28.6667 24.6533 27.52 25.2266L19.72 29.1333C19.4533 29.2666 19.16 29.3333 18.8667 29.3333C18.52 29.3333 18.1734 29.24 17.8534 29.04C17.2934 28.6934 16.9467 28.08 16.9467 27.4133V20.0533C16.9467 18.7733 17.6533 17.6266 18.8 17.0533L21.6667 15.6266L23.6667 14.6266L26.6 13.16C27.2 12.8533 27.8933 12.88 28.4667 13.24C29.0267 13.5867 29.3733 14.2 29.3733 14.8667Z" fill="#A8BCD2"/>
<path id="Vector_4" d="M23.48 12.2133L21.5067 13.2667L8.82666 6.1333L10.92 5L23.16 11.9067C23.2933 11.9867 23.4 12.0933 23.48 12.2133Z" fill="#A8BCD2"/>
<path id="Vector_5" d="M23.6666 14.6266V17.6533C23.6666 18.2 23.2133 18.6533 22.6666 18.6533C22.12 18.6533 21.6666 18.2 21.6666 17.6533V15.6266L23.6666 14.6266Z" fill="#A8BCD2"/>
</g>
</g>
</svg>
