<svg width="32" height="32" viewBox="0 0 32 32" fill="none" xmlns="http://www.w3.org/2000/svg">
<g id="vuesax/bulk/document-copy">
<g id="document-copy">
<path id="Vector" opacity="0.4" d="M20.6667 17.5333H17.7734C15.4001 17.5333 13.4667 15.6133 13.4667 13.2267V10.3333C13.4667 9.78666 13.0267 9.33333 12.4667 9.33333H8.24008C5.16008 9.33333 2.66675 11.3333 2.66675 14.9067V23.76C2.66675 27.3333 5.16008 29.3333 8.24008 29.3333H16.0934C19.1734 29.3333 21.6667 27.3333 21.6667 23.76V18.5333C21.6667 17.9733 21.2134 17.5333 20.6667 17.5333Z" fill="#A8BCD2"/>
<path id="Vector_2" d="M23.76 2.66667H21.1333H19.68H15.9067C12.8933 2.66667 10.4533 4.58667 10.3467 8.01334C10.4267 8.01334 10.4933 8.00001 10.5733 8.00001H14.3467H15.8H18.4267C21.5067 8.00001 24 10 24 13.5733V16.2V19.8133V22.44C24 22.52 23.9867 22.5867 23.9867 22.6533C26.96 22.56 29.3333 20.5867 29.3333 17.1067V14.48V10.8667V8.24001C29.3333 4.66667 26.84 2.66667 23.76 2.66667Z" fill="#A8BCD2"/>
<path id="Vector_3" d="M15.9733 9.53334C15.5599 9.12 14.8533 9.4 14.8533 9.97334V13.4667C14.8533 14.9333 16.0933 16.1333 17.6133 16.1333C18.5599 16.1467 19.8799 16.1467 21.0133 16.1467C21.5866 16.1467 21.8799 15.48 21.4799 15.08C20.0266 13.6267 17.4399 11.0267 15.9733 9.53334Z" fill="#A8BCD2"/>
</g>
</g>
</svg>
