<svg width="12" height="12" viewBox="0 0 12 12" fill="none" xmlns="http://www.w3.org/2000/svg">
<g id="info_FILL1_wght400_GRAD0_opsz24 1">
<path id="Vector" d="M6 8.5C6.14167 8.5 6.26042 8.45208 6.35625 8.35625C6.45208 8.26042 6.5 8.14167 6.5 8V6C6.5 5.85833 6.45208 5.73958 6.35625 5.64375C6.26042 5.54792 6.14167 5.5 6 5.5C5.85833 5.5 5.73958 5.54792 5.64375 5.64375C5.54792 5.73958 5.5 5.85833 5.5 6V8C5.5 8.14167 5.54792 8.26042 5.64375 8.35625C5.73958 8.45208 5.85833 8.5 6 8.5ZM6 4.5C6.14167 4.5 6.26042 4.45208 6.35625 4.35625C6.45208 4.26042 6.5 4.14167 6.5 4C6.5 3.85833 6.45208 3.73958 6.35625 3.64375C6.26042 3.54792 6.14167 3.5 6 3.5C5.85833 3.5 5.73958 3.54792 5.64375 3.64375C5.54792 3.73958 5.5 3.85833 5.5 4C5.5 4.14167 5.54792 4.26042 5.64375 4.35625C5.73958 4.45208 5.85833 4.5 6 4.5ZM6 11C5.30833 11 4.65833 10.8688 4.05 10.6062C3.44167 10.3438 2.9125 9.9875 2.4625 9.5375C2.0125 9.0875 1.65625 8.55833 1.39375 7.95C1.13125 7.34167 1 6.69167 1 6C1 5.30833 1.13125 4.65833 1.39375 4.05C1.65625 3.44167 2.0125 2.9125 2.4625 2.4625C2.9125 2.0125 3.44167 1.65625 4.05 1.39375C4.65833 1.13125 5.30833 1 6 1C6.69167 1 7.34167 1.13125 7.95 1.39375C8.55833 1.65625 9.0875 2.0125 9.5375 2.4625C9.9875 2.9125 10.3438 3.44167 10.6062 4.05C10.8688 4.65833 11 5.30833 11 6C11 6.69167 10.8688 7.34167 10.6062 7.95C10.3438 8.55833 9.9875 9.0875 9.5375 9.5375C9.0875 9.9875 8.55833 10.3438 7.95 10.6062C7.34167 10.8688 6.69167 11 6 11Z" fill="#DFE2E9"/>
</g>
</svg>
