<svg width="16" height="16" viewBox="0 0 16 16" fill="none" xmlns="http://www.w3.org/2000/svg">
<g id="info">
<path id="Vector" d="M7.33334 4.66659H8.66667V5.99992H7.33334V4.66659ZM7.33334 7.33325H8.66667V11.3333H7.33334V7.33325ZM8 1.33325C4.32 1.33325 1.33334 4.31992 1.33334 7.99992C1.33334 11.6799 4.32 14.6666 8 14.6666C11.68 14.6666 14.6667 11.6799 14.6667 7.99992C14.6667 4.31992 11.68 1.33325 8 1.33325ZM8 13.3333C5.06 13.3333 2.66667 10.9399 2.66667 7.99992C2.66667 5.05992 5.06 2.66659 8 2.66659C10.94 2.66659 13.3333 5.05992 13.3333 7.99992C13.3333 10.9399 10.94 13.3333 8 13.3333Z" fill="#0096B2"/>
</g>
</svg>
