<svg width="32" height="32" viewBox="0 0 32 32" fill="none" xmlns="http://www.w3.org/2000/svg">
<g id="vuesax/bulk/receipt-item">
<g id="receipt-item">
<path id="Vector" d="M29.3333 8.00001V11.2267C29.3333 13.3333 27.9999 14.6667 25.8933 14.6667H21.3333V5.34667C21.3333 3.86667 22.5466 2.65334 24.0266 2.66667C25.4799 2.68001 26.8133 3.26667 27.7733 4.22667C28.7333 5.20001 29.3333 6.53334 29.3333 8.00001Z" fill="#A8BCD2"/>
<path id="Vector_2" opacity="0.4" d="M2.66675 9.33334V28C2.66675 29.1067 3.92008 29.7333 4.80008 29.0667L7.08008 27.36C7.61341 26.96 8.36008 27.0133 8.84008 27.4933L11.0534 29.72C11.5734 30.24 12.4267 30.24 12.9467 29.72L15.1867 27.48C15.6534 27.0133 16.4001 26.96 16.9201 27.36L19.2001 29.0667C20.0801 29.72 21.3334 29.0933 21.3334 28V5.33334C21.3334 3.86667 22.5334 2.66667 24.0001 2.66667H9.33342H8.00008C4.00008 2.66667 2.66675 5.05334 2.66675 8.00001V9.33334Z" fill="#A8BCD2"/>
<g id="Group">
<path id="Vector_3" d="M16 16.3466H12C11.4533 16.3466 11 16.8 11 17.3466C11 17.8933 11.4533 18.3466 12 18.3466H16C16.5467 18.3466 17 17.8933 17 17.3466C17 16.8 16.5467 16.3466 16 16.3466Z" fill="#A8BCD2"/>
<path id="Vector_4" d="M12 13.0133H16C16.5467 13.0133 17 12.56 17 12.0133C17 11.4667 16.5467 11.0133 16 11.0133H12C11.4533 11.0133 11 11.4667 11 12.0133C11 12.56 11.4533 13.0133 12 13.0133Z" fill="#A8BCD2"/>
<path id="Vector_5" d="M7.96004 10.68C7.21338 10.68 6.62671 11.28 6.62671 12.0133C6.62671 12.7467 7.22671 13.3467 7.96004 13.3467C8.69338 13.3467 9.29338 12.7467 9.29338 12.0133C9.29338 11.28 8.69338 10.68 7.96004 10.68Z" fill="#A8BCD2"/>
<path id="Vector_6" d="M7.96004 16.0133C7.21338 16.0133 6.62671 16.6133 6.62671 17.3467C6.62671 18.08 7.22671 18.68 7.96004 18.68C8.69338 18.68 9.29338 18.08 9.29338 17.3467C9.29338 16.6133 8.69338 16.0133 7.96004 16.0133Z" fill="#A8BCD2"/>
</g>
</g>
</g>
</svg>
