<svg width="32" height="32" viewBox="0 0 32 32" fill="none" xmlns="http://www.w3.org/2000/svg">
<g id="vuesax/bulk/shopping-cart">
<g id="shopping-cart">
<path id="Vector" d="M21.6667 30C22.9554 30 24 28.9553 24 27.6667C24 26.378 22.9554 25.3333 21.6667 25.3333C20.378 25.3333 19.3334 26.378 19.3334 27.6667C19.3334 28.9553 20.378 30 21.6667 30Z" fill="#A8BCD2"/>
<path id="Vector_2" d="M11 30C12.2886 30 13.3333 28.9553 13.3333 27.6667C13.3333 26.378 12.2886 25.3333 11 25.3333C9.71129 25.3333 8.66663 26.378 8.66663 27.6667C8.66663 28.9553 9.71129 30 11 30Z" fill="#A8BCD2"/>
<path id="Vector_3" opacity="0.4" d="M6.45329 5.25334L6.18663 8.52C6.13329 9.14667 6.62663 9.66667 7.2533 9.66667H27.6666C28.2266 9.66667 28.6933 9.24 28.7333 8.68C28.9066 6.32 27.1066 4.40001 24.7466 4.40001H8.38662C8.25328 3.81334 7.98662 3.25333 7.57328 2.78667C6.91995 2.08 5.98663 1.66667 5.02663 1.66667H2.66663C2.11996 1.66667 1.66663 2.12001 1.66663 2.66667C1.66663 3.21334 2.11996 3.66667 2.66663 3.66667H4.98663C5.39997 3.66667 5.78663 3.84001 6.06663 4.13335C6.34663 4.44001 6.47995 4.84001 6.45329 5.25334Z" fill="#A8BCD2"/>
<path id="Vector_4" d="M27.3467 11.6667H6.89333C6.33333 11.6667 5.87999 12.0933 5.82666 12.64L5.34666 18.44C5.15999 20.7067 6.94666 22.6667 9.22666 22.6667H24.0533C26.0533 22.6667 27.8133 21.0267 27.96 19.0267L28.4 12.8C28.4533 12.1867 27.9733 11.6667 27.3467 11.6667Z" fill="#A8BCD2"/>
</g>
</g>
</svg>
