<svg width="32" height="32" viewBox="0 0 32 32" fill="none" xmlns="http://www.w3.org/2000/svg">
<g id="vuesax/bulk/task-square">
<g id="vuesax/bulk/task-square_2">
<g id="task-square">
<path id="Vector" opacity="0.4" d="M21.028 4H10.972C6.604 4 4 6.604 4 10.972V21.028C4 25.396 6.604 28 10.972 28H21.028C25.396 28 28 25.396 28 21.028V10.972C28 6.604 25.396 4 21.028 4Z" fill="#A8BCD2"/>
<path id="Vector_2" d="M23.5717 12.2441C23.5717 12.7361 23.1757 13.1441 22.6717 13.1441H16.3717C15.8797 13.1441 15.4717 12.7361 15.4717 12.2441C15.4717 11.7521 15.8797 11.3441 16.3717 11.3441H22.6717C23.1757 11.3441 23.5717 11.7521 23.5717 12.2441Z" fill="#A8BCD2"/>
<path id="Vector_3" d="M13.5641 11.08L10.8641 13.78C10.6841 13.96 10.4561 14.044 10.2281 14.044C10.0001 14.044 9.76012 13.96 9.59212 13.78L8.69212 12.88C8.33212 12.532 8.33212 11.956 8.69212 11.608C9.04012 11.26 9.60412 11.26 9.96412 11.608L10.2281 11.872L12.2921 9.80803C12.6401 9.46003 13.2041 9.46003 13.5641 9.80803C13.9121 10.156 13.9121 10.732 13.5641 11.08Z" fill="#A8BCD2"/>
<path id="Vector_4" d="M23.5717 20.6439C23.5717 21.1359 23.1757 21.5439 22.6717 21.5439H16.3717C15.8797 21.5439 15.4717 21.1359 15.4717 20.6439C15.4717 20.1519 15.8797 19.7439 16.3717 19.7439H22.6717C23.1757 19.7439 23.5717 20.1519 23.5717 20.6439Z" fill="#A8BCD2"/>
<path id="Vector_5" d="M13.5641 19.4799L10.8641 22.1799C10.6841 22.3599 10.4561 22.4439 10.2281 22.4439C10.0001 22.4439 9.76012 22.3599 9.59212 22.1799L8.69212 21.2799C8.33212 20.9319 8.33212 20.3559 8.69212 20.0079C9.04012 19.6599 9.60412 19.6599 9.96412 20.0079L10.2281 20.2719L12.2921 18.2079C12.6401 17.8599 13.2041 17.8599 13.5641 18.2079C13.9121 18.5559 13.9121 19.1319 13.5641 19.4799Z" fill="#A8BCD2"/>
</g>
</g>
</g>
</svg>
